<svg xmlns="http://www.w3.org/2000/svg" width="593.459" height="768.563" viewBox="0 0 593.459 768.563">
  <g id="Group_36" data-name="Group 36" transform="translate(-1095 -173.437)">
    <path id="Path_26" data-name="Path 26" d="M284.5,0C441.625,0,569,60.665,569,135.5S441.625,271,284.5,271,0,210.335,0,135.5,127.375,0,284.5,0Z" transform="translate(1095 252)" fill="#efefef"/>
    <path id="Path_22" data-name="Path 22" d="M148,0c22.88.809,148,94.7,148,211.526S224.11,382,142.372,382,0,328.348,0,211.525,125.12-.809,148,0Z" transform="translate(1246 472)" fill="#efefef"/>
    <path id="Path_19" data-name="Path 19" d="M1197.424,285.624l-30.76-120.841L1289.7,285.624Z" transform="translate(-58.177 392.927) rotate(-17)" fill="#efefef"/>
    <path id="Path_20" data-name="Path 20" d="M1258.943,285.624l30.76-120.841L1166.665,285.624Z" transform="matrix(0.921, 0.391, -0.391, 0.921, 565.667, -433.987)" fill="#efefef"/>
    <path id="Path_27" data-name="Path 27" d="M24.469-66.7c12.071,0,10.537,87.561,0,85.513-19.88-3.864-19.927-41.525,39.394,0,89.881,62.916,29.065,50.806-6.438,50.806S-.421,60.869-.421,33.973-11.035-66.7,24.469-66.7Z" transform="translate(1415.407 852.447)" fill="#efefef"/>
    <path id="Path_21" data-name="Path 21" d="M1423.381,1015.652s-31.762,148.137,18.2,158.182,62.5-31.787,155.5-67.788-25.891-99.258-6-198.01" transform="translate(-56 -351.008)" fill="none" stroke="#efefef" stroke-linecap="round" stroke-width="19"/>
    <path id="Path_28" data-name="Path 28" d="M24.469-66.7c12.071,0,10.537,87.561,0,85.513-19.88-3.864-19.927-41.525,39.394,0,89.881,62.916,29.065,50.806-6.438,50.806S-.421,60.869-.421,33.973-11.035-66.7,24.469-66.7Z" transform="translate(1339.407 871.447)" fill="#efefef"/>
  </g>
</svg>
